<?xml version="1.0" encoding="UTF-8"?>
<svg id="Layer_2" data-name="Layer 2" xmlns="http://www.w3.org/2000/svg" viewBox="0 0 132.34 135.41">
  <defs>
    <style>
      .cls-1 {
        fill: #fff;
      }

      .cls-2 {
        fill: #8c8c8c;
        opacity: .75;
      }
    </style>
  </defs>
  <g id="Receipt_Icon" data-name="Receipt Icon">
    <g>
      <path class="cls-1" d="M5,16.201H127.34c2.76,0,5,2.24,5,5V125.41c0,5.519-4.481,10-10,10H10c-5.519,0-10-4.481-10-10V21.201c0-2.76,2.24-5,5-5Z"/>
      <path class="cls-1" d="M25.515,.809L12.612,13.838c-1.629,1.645-.464,4.438,1.851,4.438h25.807c2.315,0,3.48-2.793,1.851-4.438L29.217,.809c-1.019-1.029-2.682-1.029-3.702,0Z"/>
      <path class="cls-1" d="M81.23,.809l-12.903,13.029c-1.629,1.645-.464,4.438,1.851,4.438h25.807c2.315,0,3.48-2.793,1.851-4.438L84.931,.809c-1.019-1.029-2.682-1.029-3.702,0Z"/>
      <path class="cls-1" d="M129.674,.535l-17.452,20.484c-1.177,1.382-.195,3.508,1.62,3.508h18.499V1.544c.024-1.421-1.745-2.09-2.667-1.008Z"/>
      <path class="cls-1" d="M53.267,.809l-12.903,13.029c-1.629,1.645-.464,4.438,1.851,4.438h25.807c2.315,0,3.48-2.793,1.851-4.438L56.969,.809c-1.019-1.029-2.682-1.029-3.702,0Z"/>
      <path class="cls-1" d="M106.278,.809l-12.903,13.029c-1.629,1.645-.464,4.438,1.851,4.438h25.807c2.315,0,3.48-2.793,1.851-4.438L109.98,.809c-1.019-1.029-2.682-1.029-3.702,0Z"/>
      <path class="cls-1" d="M2.667,.535L20.119,21.019c1.177,1.382,.195,3.508-1.62,3.508H0V1.544C-.024,.123,1.745-.546,2.667,.535Z"/>
      <rect class="cls-2" x="11.988" y="43.512" width="48.162" height="8.426" rx="2.84" ry="2.84"/>
      <rect class="cls-2" x="11.988" y="58.958" width="38.204" height="8.426" rx="2.53" ry="2.53"/>
      <rect class="cls-2" x="11.988" y="74.405" width="38.204" height="8.426" rx="2.53" ry="2.53"/>
      <rect class="cls-2" x="11.988" y="89.852" width="38.204" height="8.426" rx="2.53" ry="2.53"/>
      <rect class="cls-2" x="11.988" y="105.299" width="38.204" height="8.426" rx="2.53" ry="2.53"/>
      <rect class="cls-2" x="70.355" y="43.512" width="48.162" height="8.426" rx="2.84" ry="2.84"/>
      <rect class="cls-2" x="83.894" y="58.423" width="39.472" height="8.426" rx="2.571" ry="2.571"/>
      <rect class="cls-2" x="66.362" y="73.334" width="38.204" height="8.426" rx="2.53" ry="2.53"/>
      <rect class="cls-2" x="72.216" y="88.245" width="38.204" height="8.426" rx="2.53" ry="2.53"/>
      <rect class="cls-2" x="85.464" y="103.156" width="38.204" height="8.426" rx="2.53" ry="2.53"/>
      <rect class="cls-2" x="11.608" y="29.456" width="48.162" height="8.426" rx="2.84" ry="2.84"/>
      <rect class="cls-2" x="69.976" y="29.456" width="48.162" height="8.426" rx="2.84" ry="2.84"/>
    </g>
  </g>
</svg>