<?xml version="1.0" encoding="UTF-8"?>
<svg id="Layer_2" data-name="Layer 2" xmlns="http://www.w3.org/2000/svg" xmlns:xlink="http://www.w3.org/1999/xlink" viewBox="0 0 212.17 212.17">
  <defs>
    <style>
      .cls-1 {
        fill: #fff;
      }

      .cls-2 {
        fill: #8c8c8c;
        opacity: .75;
      }

      .cls-3 {
        fill: url(#linear-gradient);
      }
    </style>
    <linearGradient id="linear-gradient" x1="106.085" y1="212.17" x2="106.085" y2="0" gradientUnits="userSpaceOnUse">
      <stop offset="0" stop-color="#096"/>
      <stop offset=".528" stop-color="#066e4a"/>
      <stop offset=".984" stop-color="#025f41"/>
    </linearGradient>
  </defs>
  <g id="Receipt_Icon" data-name="Receipt Icon">
    <g>
      <rect class="cls-3" width="212.17" height="212.17" rx="12" ry="12"/>
      <path class="cls-1" d="M44.915,54.581h122.34c2.76,0,5,2.24,5,5v104.209c0,5.519-4.481,10-10,10H49.915c-5.519,0-10-4.481-10-10V59.581c0-2.76,2.24-5,5-5Z"/>
      <path class="cls-1" d="M65.43,39.189l-12.903,13.029c-1.629,1.645-.464,4.438,1.851,4.438h25.807c2.315,0,3.48-2.793,1.851-4.438l-12.903-13.029c-1.019-1.029-2.682-1.029-3.702,0Z"/>
      <path class="cls-1" d="M121.144,39.189l-12.903,13.029c-1.629,1.645-.464,4.438,1.851,4.438h25.807c2.315,0,3.48-2.793,1.851-4.438l-12.903-13.029c-1.019-1.029-2.682-1.029-3.702,0Z"/>
      <path class="cls-1" d="M169.589,38.915l-17.452,20.484c-1.177,1.382-.195,3.508,1.62,3.508h18.499v-22.984c.024-1.421-1.745-2.09-2.667-1.008Z"/>
      <path class="cls-1" d="M93.182,39.189l-12.903,13.029c-1.629,1.645-.464,4.438,1.851,4.438h25.807c2.315,0,3.48-2.793,1.851-4.438l-12.903-13.029c-1.019-1.029-2.682-1.029-3.702,0Z"/>
      <path class="cls-1" d="M146.193,39.189l-12.903,13.029c-1.629,1.645-.464,4.438,1.851,4.438h25.807c2.315,0,3.48-2.793,1.851-4.438l-12.903-13.029c-1.019-1.029-2.682-1.029-3.702,0Z"/>
      <path class="cls-1" d="M42.582,38.915l17.452,20.484c1.177,1.382,.195,3.508-1.62,3.508h-18.499v-22.984c-.024-1.421,1.745-2.09,2.667-1.008Z"/>
      <rect class="cls-2" x="51.902" y="81.891" width="48.162" height="8.426" rx="2.84" ry="2.84"/>
      <rect class="cls-2" x="51.902" y="97.338" width="38.204" height="8.426" rx="2.53" ry="2.53"/>
      <rect class="cls-2" x="51.902" y="112.785" width="38.204" height="8.426" rx="2.53" ry="2.53"/>
      <rect class="cls-2" x="51.902" y="128.232" width="38.204" height="8.426" rx="2.53" ry="2.53"/>
      <rect class="cls-2" x="51.902" y="143.679" width="38.204" height="8.426" rx="2.53" ry="2.53"/>
      <rect class="cls-2" x="110.27" y="81.891" width="48.162" height="8.426" rx="2.84" ry="2.84"/>
      <rect class="cls-2" x="123.809" y="96.803" width="39.472" height="8.426" rx="2.571" ry="2.571"/>
      <rect class="cls-2" x="106.277" y="111.714" width="38.204" height="8.426" rx="2.53" ry="2.53"/>
      <rect class="cls-2" x="112.13" y="126.625" width="38.204" height="8.426" rx="2.53" ry="2.53"/>
      <rect class="cls-2" x="125.379" y="141.536" width="38.204" height="8.426" rx="2.53" ry="2.53"/>
      <rect class="cls-2" x="51.523" y="67.836" width="48.162" height="8.426" rx="2.84" ry="2.84"/>
      <rect class="cls-2" x="109.89" y="67.836" width="48.162" height="8.426" rx="2.84" ry="2.84"/>
    </g>
  </g>
</svg>